HIERARCHY
ROOT Pelvis
{
	OFFSET 0.000000 0.000000 0.000000
	CHANNELS 6 Xposition Yposition Zposition Xrotation Yrotation Zrotation
	JOINT LeftUpLeg_virtual
	{
		OFFSET 0.000000 0.000000 0.000000
		CHANNELS 3 Xrotation Yrotation Zrotation
		JOINT LeftUpLeg
		{
			OFFSET 18.735201 -5.666702 -4.541200
			CHANNELS 3 Xrotation Yrotation Zrotation
			JOINT LeftLeg
			{
				OFFSET -0.021200 -31.938179 0.493100
				CHANNELS 3 Xrotation Yrotation Zrotation
				JOINT LeftFoot
				{
					OFFSET 0.021200 -31.938179 -4.336299
					CHANNELS 3 Xrotation Yrotation Zrotation
					JOINT LeftToeBase
					{
						OFFSET 0.943001 -26.722000 15.023500
						CHANNELS 3 Xrotation Yrotation Zrotation
						End Site
						{
							OFFSET 0 0 0
						}
					}
				}
			}
		}
	}
	JOINT RightUpLeg_virtual
	{
		OFFSET 0.000000 0.000000 0.000000
		CHANNELS 3 Xrotation Yrotation Zrotation
		JOINT RightUpLeg
		{
			OFFSET -18.735201 -5.666702 -4.541200
			CHANNELS 3 Xrotation Yrotation Zrotation
			JOINT RightLeg
			{
				OFFSET 0.018946 -31.938133 0.493100
				CHANNELS 3 Xrotation Yrotation Zrotation
				JOINT RightFoot
				{
					OFFSET -0.018946 -31.938126 -4.336299
					CHANNELS 3 Xrotation Yrotation Zrotation
					JOINT RightToeBase
					{
						OFFSET -0.943001 -26.722004 15.023500
						CHANNELS 3 Xrotation Yrotation Zrotation
						End Site
						{
							OFFSET 0 0 0
						}
					}
				}
			}
		}
	}
	JOINT Hips_virtual
	{
		OFFSET 0.000000 0.000000 0.000000
		CHANNELS 3 Xrotation Yrotation Zrotation
		JOINT Hips
		{
			OFFSET -0.000000 -0.000000 -0.000000
			CHANNELS 3 Xrotation Yrotation Zrotation
			JOINT Spine
			{
				OFFSET 0.000000 10.199997 -0.299500
				CHANNELS 3 Xrotation Yrotation Zrotation
				JOINT Spine1
				{
					OFFSET 0.000000 11.900002 -1.516600
					CHANNELS 3 Xrotation Yrotation Zrotation
					JOINT Spine2
					{
						OFFSET 0.000000 13.600006 -2.842500
						CHANNELS 3 Xrotation Yrotation Zrotation
						JOINT Neck_virtual
						{
							OFFSET 0.000000 0.000000 0.000000
							CHANNELS 3 Xrotation Yrotation Zrotation
							JOINT Neck
							{
								OFFSET 0.000000 9.624100 -2.890100
								CHANNELS 3 Xrotation Yrotation Zrotation
								JOINT Head
								{
									OFFSET 0.000000 14.068802 -1.351900
									CHANNELS 3 Xrotation Yrotation Zrotation
									End Site
									{
										OFFSET 0 0 0
									}
								}
							}
						}
						JOINT LeftShoulder_virtual
						{
							OFFSET 0.000000 0.000000 0.000000
							CHANNELS 3 Xrotation Yrotation Zrotation
							JOINT LeftShoulder
							{
								OFFSET 15.263000 10.923401 -0.547700
								CHANNELS 3 Xrotation Yrotation Zrotation
								JOINT LeftArm
								{
									OFFSET 25.438599 -2.830597 -13.032500
									CHANNELS 3 Xrotation Yrotation Zrotation
									JOINT LeftForeArm
									{
										OFFSET 29.960503 0.000000 0.000000
										CHANNELS 3 Xrotation Yrotation Zrotation
										JOINT LeftHand
										{
											OFFSET 27.849251 0.000000 0.000000
											CHANNELS 3 Xrotation Yrotation Zrotation
											End Site
											{
												OFFSET 0 0 0
											}
										}
									}
								}
							}
						}
						JOINT RightShoulder_virtual
						{
							OFFSET 0.000000 0.000000 0.000000
							CHANNELS 3 Xrotation Yrotation Zrotation
							JOINT RightShoulder
							{
								OFFSET -15.263000 10.923401 -0.547700
								CHANNELS 3 Xrotation Yrotation Zrotation
								JOINT RightArm
								{
									OFFSET -25.438599 -2.830597 -13.032500
									CHANNELS 3 Xrotation Yrotation Zrotation
									JOINT RightForeArm
									{
										OFFSET -29.960503 0.000000 0.000000
										CHANNELS 3 Xrotation Yrotation Zrotation
										JOINT RightHand
										{
											OFFSET -27.849251 0.000000 0.000000
											CHANNELS 3 Xrotation Yrotation Zrotation
											End Site
											{
												OFFSET 0 0 0
											}
										}
									}
								}
							}
						}
					}
				}
			}
		}
	}
}
MOTION
Frames: 7
Frame Time: 0.03333333
-3.153662 85.350197 9.576227 0.000000 0.000000 0.000000 -7.692308 22.964020 7.675126 -24.886308 -15.354588 8.030685 44.829161 -1.330407 0.128351 -15.767750 -4.668351 -19.353799 0.000000 0.000000 0.000000 -7.692308 22.964020 7.675126 -9.402235 -28.716776 -25.753215 53.848303 1.736550 -0.111271 -40.221611 -6.915706 12.261427 0.000000 0.000000 0.000000 -7.692308 22.964020 7.675126 0.000000 0.000001 0.000000 19.081040 1.163044 1.408635 5.234402 1.638213 -0.510233 0.000000 0.000000 0.000000 5.225528 1.690294 -0.516648 -3.339749 -2.121169 -1.287323 0.000000 0.000000 0.000000 5.225528 1.690294 -0.516648 -0.697454 -12.691490 -24.679618 -13.018054 -5.162526 -28.488921 51.978744 -46.839651 7.482873 0.000000 0.000000 0.000000 5.225528 1.690294 -0.516648 6.242215 -2.614801 -11.084384 -35.911372 -11.573026 -6.604745 -129.166090 14.300481 149.579340 0.000000 0.000000 0.000000 
-3.285367 85.379349 10.002548 0.000000 0.000000 0.000000 -7.920674 24.637870 7.697487 -24.975690 -17.168130 7.769461 44.425873 -1.318871 0.125936 -15.489315 -4.629516 -19.826296 0.000000 0.000000 0.000000 -7.920674 24.637870 7.697487 -7.539103 -30.699583 -24.836390 52.317562 1.682191 -0.101474 -40.386499 -7.345648 12.249585 0.000000 0.000000 0.000000 -7.920674 24.637870 7.697487 0.000000 -0.000001 0.000000 18.997560 1.056153 1.385333 5.096426 1.511982 -0.476951 0.000000 0.000000 0.000000 5.088411 1.550697 -0.475987 -3.503198 -1.755636 -2.080862 0.000000 0.000000 0.000000 5.088411 1.550697 -0.475987 -0.787873 -12.075487 -26.714946 -11.942303 -3.432191 -26.261536 55.390870 -49.285194 10.889079 0.000000 0.000000 0.000000 5.088411 1.550697 -0.475987 7.717150 -7.373790 -5.050553 -43.972164 -21.360508 -11.904041 -118.831317 10.484328 148.086452 0.000000 0.000000 0.000000 
-3.323294 85.403053 10.428539 0.000000 0.000000 0.000000 -8.064903 26.722529 8.053714 -25.297040 -19.177260 6.925484 43.612452 -1.280778 0.123569 -14.888086 -4.570934 -20.244117 0.000000 0.000000 0.000000 -8.064903 26.722529 8.053714 -5.824126 -32.902111 -24.312992 50.769995 1.673423 -0.088304 -40.608992 -7.938913 12.369718 0.000000 0.000000 0.000000 -8.064903 26.722529 8.053714 0.000000 0.000000 0.000000 19.004240 0.661455 1.449815 5.119966 0.756775 -0.529776 0.000000 0.000000 0.000000 5.119969 0.792227 -0.531181 -3.494745 -1.506343 -2.119221 0.000000 0.000000 0.000000 5.119969 0.792227 -0.531181 -0.786547 -12.473174 -26.068141 -9.832089 0.874627 -25.954341 55.683739 -52.355746 13.970432 0.000000 0.000000 0.000000 5.119969 0.792227 -0.531181 8.148601 -9.861668 -1.653015 -54.292409 -30.007815 -14.466126 -110.199932 8.391180 146.424803 0.000000 0.000000 0.000000 
-3.362078 85.434105 10.765642 0.000000 0.000000 0.000000 -8.011324 28.571745 8.345250 -25.728419 -20.949172 6.117874 42.670575 -1.258410 0.120933 -14.206222 -4.451220 -20.613118 0.000000 0.000000 0.000000 -8.011324 28.571745 8.345250 -4.541750 -34.784063 -23.822134 49.399760 1.657705 -0.076634 -40.728387 -8.472379 12.458956 0.000000 0.000000 0.000000 -8.011324 28.571745 8.345250 0.000000 -0.000001 0.000000 19.015371 0.133876 1.536720 5.137559 -0.395260 -0.742505 0.000000 0.000000 0.000000 5.145103 -0.355856 -0.748201 -3.484074 -1.302292 -2.103265 0.000000 0.000000 0.000000 5.145103 -0.355856 -0.748201 -0.729884 -12.936521 -24.594034 -7.448408 5.738908 -26.622710 53.665893 -55.184100 15.413777 0.000000 0.000000 0.000000 5.145103 -0.355856 -0.748201 8.112592 -11.609560 1.893598 -67.056161 -34.147599 -17.067552 -102.494228 5.567645 145.072385 0.000000 0.000000 0.000000 
-3.487631 85.522110 10.932129 0.000000 0.000000 0.000000 -7.753741 29.416921 8.399027 -25.827235 -21.872986 5.839526 41.656190 -1.193791 0.116957 -13.603825 -4.281520 -20.884103 0.000000 0.000000 0.000000 -7.753741 29.416921 8.399027 -4.096935 -35.648359 -23.418951 48.593862 1.650315 -0.070261 -40.689291 -8.725302 12.353528 0.000000 0.000000 0.000000 -7.753741 29.416921 8.399027 0.000000 0.000000 0.000000 18.986193 -0.471247 1.616405 5.036266 -1.716507 -1.116739 0.000000 0.000000 0.000000 5.053170 -1.675395 -1.128120 -3.537513 -1.232344 -1.627003 0.000000 0.000000 0.000000 5.053170 -1.675395 -1.128120 -0.531980 -12.853701 -22.287723 -5.286650 9.327130 -28.815837 50.921430 -55.709161 15.466793 0.000000 0.000000 0.000000 5.053170 -1.675395 -1.128120 7.804867 -13.142011 8.638038 -80.663400 -32.852387 -18.382390 -94.425685 1.467763 144.065410 0.000000 0.000000 0.000000 
-3.612220 85.648880 10.968187 0.000000 0.000000 0.000000 -7.369497 29.660619 8.296560 -25.785841 -22.167184 5.856101 40.682772 -1.214050 0.112351 -13.061367 -4.088752 -20.993816 0.000000 0.000000 0.000000 -7.369497 29.660619 8.296560 -4.194688 -35.867987 -23.152407 48.133118 1.626796 -0.067176 -40.518868 -8.812290 12.189858 0.000000 0.000000 0.000000 -7.369497 29.660619 8.296560 0.000000 0.000000 0.000000 18.937039 -1.029726 1.656426 4.855966 -2.915589 -1.485522 0.000000 0.000000 0.000000 4.883687 -2.873582 -1.502392 -3.567377 -1.224542 -0.881220 0.000000 0.000000 0.000000 4.883687 -2.873582 -1.502392 -0.316024 -12.738292 -20.094181 -3.377278 12.102855 -31.052745 48.967856 -55.386967 15.024070 0.000000 0.000000 0.000000 4.883687 -2.873582 -1.502392 7.432620 -14.000965 15.289372 -88.040244 -27.657364 -16.830783 -88.510359 5.611657 143.384331 0.000000 0.000000 0.000000 
-3.706448 85.825157 10.932026 0.000000 0.000000 0.000000 -6.736477 28.689940 7.767972 -25.391184 -21.526543 6.517054 40.168728 -1.276474 0.106684 -13.021442 -3.693020 -20.878968 0.000000 0.000000 0.000000 -6.736477 28.689940 7.767972 -4.857628 -34.826172 -22.733468 48.033900 1.557928 -0.069506 -40.095130 -8.687729 11.910419 0.000000 0.000000 0.000000 -6.736477 28.689940 7.767972 0.000000 0.000000 0.000000 18.881628 -1.396845 1.606020 4.663847 -3.603362 -1.636672 0.000000 0.000000 0.000000 4.693071 -3.564251 -1.658750 -3.306904 -1.172663 -0.233871 0.000000 0.000000 0.000000 4.693071 -3.564251 -1.658750 -0.261494 -12.815580 -19.242265 -1.817632 14.026079 -32.013110 49.221547 -54.860646 15.084314 0.000000 0.000000 0.000000 4.693071 -3.564251 -1.658750 7.298773 -13.723331 19.822642 -89.384439 -22.421670 -15.795509 -87.717852 8.418911 143.601244 0.000000 0.000000 0.000000 
